<?xml version="1.0" standalone="no"?><!-- Generator: Gravit.io --><svg xmlns="http://www.w3.org/2000/svg" xmlns:xlink="http://www.w3.org/1999/xlink" style="isolation:isolate" viewBox="0 0 200 220" width="200" height="220"><defs><clipPath id="_clipPath_Z3iZXwnMLgBE5hwDdHwfyC6dVem8Zwtv"><rect width="200" height="220"/></clipPath></defs><g clip-path="url(#_clipPath_Z3iZXwnMLgBE5hwDdHwfyC6dVem8Zwtv)"><rect width="200" height="220" style="fill:rgb(0,0,0)"/><g style="isolation:isolate" id="Icona"><linearGradient id="_lgradient_0" x1="50%" y1="100%" x2="50.000000000000014%" y2="0%"><stop offset="0%" stop-opacity="1" style="stop-color:rgb(80,82,255)"/><stop offset="100%" stop-opacity="1" style="stop-color:rgb(34,232,232)"/></linearGradient><path d=" M 87.01 13.577 L 70 23.397 L 40 40.718 L 22.99 50.538 C 15.821 54.678 10 64.76 10 73.038 L 10 92.679 L 10 127.321 L 10 146.962 C 10 155.24 15.821 165.322 22.99 169.462 L 40 179.282 L 70 196.603 L 87.01 206.423 C 94.179 210.562 105.821 210.562 112.99 206.423 L 130 196.603 L 160 179.282 L 177.01 169.462 C 184.179 165.322 190 155.24 190 146.962 L 190 127.321 L 190 92.679 L 190 73.038 C 190 64.76 184.179 54.678 177.01 50.538 L 160 40.718 L 130 23.397 L 112.99 13.577 C 105.821 9.438 94.179 9.438 87.01 13.577 Z  M 100 40.718 L 40 75.359 L 40 144.641 L 70 161.962 L 70 127.321 L 100 144.641 L 130 127.321 L 130 161.962 L 160 144.641 L 160 75.359 L 100 40.718 Z  M 70 92.679 L 100 110 L 130 92.679 L 100 75.359 L 70 92.679 Z " fill-rule="evenodd" fill="url(#_lgradient_0)"/></g></g></svg>